<?xml version="1.0" encoding="UTF-8" standalone="no"?>
<!DOCTYPE svg PUBLIC "-//W3C//DTD SVG 1.1//EN" "http://www.w3.org/Graphics/SVG/1.1/DTD/svg11.dtd">
<svg version="1.1" xmlns="http://www.w3.org/2000/svg" xmlns:xlink="http://www.w3.org/1999/xlink" preserveAspectRatio="xMidYMid meet" viewBox="0 0 50 50" width="50" height="50"><defs><path d="M19.58 30.26C22.48 36.89 22.25 43.54 19.08 45.11C15.9 46.67 10.97 42.56 8.07 35.93C5.18 29.3 5.41 22.65 8.58 21.09C11.76 19.52 16.69 23.64 19.58 30.26Z" id="c5Sf8iGD1"></path><path d="M32.34 19.67C29.64 26.39 24.83 30.66 21.61 29.2C18.39 27.74 17.97 21.1 20.67 14.38C23.37 7.66 28.18 3.39 31.4 4.85C34.62 6.31 35.04 12.95 32.34 19.67Z" id="a3UQv2xFGC"></path><path d="M38.35 38.44C33.39 43.51 27.39 45.44 24.96 42.76C22.53 40.09 24.59 33.8 29.55 28.73C34.51 23.67 40.51 21.73 42.94 24.41C45.36 27.09 43.31 33.38 38.35 38.44Z" id="o6nG2REhL"></path></defs><g><g><g><use xlink:href="#c5Sf8iGD1" opacity="1" fill="#db6e22" fill-opacity="1"></use></g><g><use xlink:href="#a3UQv2xFGC" opacity="1" fill="#c9732e" fill-opacity="1"></use></g><g><use xlink:href="#o6nG2REhL" opacity="1" fill="#c97e2e" fill-opacity="1"></use></g></g></g></svg>