<?xml version="1.0" encoding="UTF-8" standalone="no"?>
<!DOCTYPE svg PUBLIC "-//W3C//DTD SVG 1.1//EN" "http://www.w3.org/Graphics/SVG/1.1/DTD/svg11.dtd">
<svg version="1.1" xmlns="http://www.w3.org/2000/svg" xmlns:xlink="http://www.w3.org/1999/xlink" preserveAspectRatio="xMidYMid meet" viewBox="0 0 120 120" width="120" height="120"><defs><path d="M42.18 71.65C50.55 89.71 49.89 107.83 40.7 112.1C31.51 116.36 17.25 105.15 8.88 87.09C0.5 69.03 1.16 50.9 10.35 46.64C19.54 42.38 33.8 53.58 42.18 71.65Z" id="hb21qfXFx"></path><path d="M79.09 42.77C71.27 61.08 57.37 72.72 48.05 68.75C38.73 64.77 37.51 46.68 45.32 28.36C53.13 10.05 67.04 -1.59 76.36 2.38C85.68 6.36 86.9 24.45 79.09 42.77Z" id="dBZ5AXa2h"></path><path d="M96.46 93.94C82.11 107.74 64.75 113.02 57.73 105.71C50.71 98.41 56.66 81.28 71.02 67.48C85.37 53.68 102.72 48.4 109.74 55.71C116.76 63.01 110.81 80.14 96.46 93.94Z" id="aoV5eSmpW"></path></defs><g><g><g><use xlink:href="#hb21qfXFx" opacity="1" fill="#db6e22" fill-opacity="1"></use></g><g><use xlink:href="#dBZ5AXa2h" opacity="1" fill="#c9732e" fill-opacity="1"></use></g><g><use xlink:href="#aoV5eSmpW" opacity="1" fill="#c97e2e" fill-opacity="1"></use></g></g></g></svg>